<svg id="Capa_1" data-name="Capa 1" xmlns="http://www.w3.org/2000/svg" viewBox="0 0 218.3 53.24"><title>logo</title><path d="M144.8,17.7a1.19,1.19,0,0,1,.4.89l1.35,11.56c0.23,2,.41,3.94.7,5.9,0.2,1.35.84,2.25,2.31,2.27a0.64,0.64,0,0,1,.63.34,53.32,53.32,0,0,0-6.75-.07l0-.15,0.5-.23a1.28,1.28,0,0,0,1-1.43q-0.64-6.6-1.32-13.2a1,1,0,0,0-.09-0.2c-0.42.81-.82,1.56-1.2,2.31L135.89,38c0,0.06-.06.12-0.09,0.17-0.34.55-.67,0.56-1,0-0.53-1-1-1.94-1.55-2.92l-6-11.3-0.23-.41c-0.08.76-.14,1.39-0.2,2-0.32,3.5-.67,7-1,10.55a1.76,1.76,0,0,0,1.5,2.19,0.44,0.44,0,0,1,.33.19,0.54,0.54,0,0,1-.55.13,20.88,20.88,0,0,0-4.5,0,1.44,1.44,0,0,1-.65-0.07,0.36,0.36,0,0,1,.28-0.18,2.33,2.33,0,0,0,1.8-2.27c0.39-3,.72-6.09,1.07-9.14l1-8.57c0-.2,0-0.5.26-0.5a0.7,0.7,0,0,1,.5.46l7.86,14.78,1.1,2.06Z" transform="translate(-1.32 -0.88)" fill="#fff"/><path d="M183.66,35.58V21.21c0-1.5-.41-2-1.91-2.33a0.69,0.69,0,0,1-.63-0.46,34.81,34.81,0,0,0,6.2,0,0.5,0.5,0,0,1-.5.46,1.57,1.57,0,0,0-1.45,1.5,5.59,5.59,0,0,0,0,.67V37.81c0,0.37.16,0.9-.24,1a1.05,1.05,0,0,1-1-.58q-3.34-3.56-6.67-7.14l-9-9.67-0.15-.12a0.36,0.36,0,0,0-.08.36v14a3.5,3.5,0,0,0,.24,1.36,1.8,1.8,0,0,0,1.64,1.22,1,1,0,0,1,.76.3,49.48,49.48,0,0,0-6.5,0,0.59,0.59,0,0,1,.44-0.3,2,2,0,0,0,1.68-2V19a2.09,2.09,0,0,1,.25-1.16Z" transform="translate(-1.32 -0.88)" fill="#fff"/><path d="M95.31,23.28a1.22,1.22,0,0,1-.42-0.72,3.91,3.91,0,0,0-2.73-2.9,11.64,11.64,0,0,0-9.33.64,7.87,7.87,0,0,0-4,5.5,10.29,10.29,0,0,0,.62,6.86,8.56,8.56,0,0,0,7.36,5.15,21.77,21.77,0,0,0,4.07,0,4.24,4.24,0,0,0,1.46-.43,1.25,1.25,0,0,0,.74-1.2c0-1.79,0-3.58-.08-5.37a1.46,1.46,0,0,0-1.2-1.58C91.4,29.13,91,29.06,90.53,29a0.54,0.54,0,0,1,.55-0.26c2.06,0.06,4.12,0,6.18,0a0.21,0.21,0,0,1,.26.13,1,1,0,0,1-.56.31c-1,.29-1.35.74-1.39,2-0.06,1.76,0,3.5,0,5.27a1.69,1.69,0,0,1-1.39,2,15.83,15.83,0,0,1-4.77.66,20.29,20.29,0,0,1-6.91-.85,7.88,7.88,0,0,1-4.4-3.35A12.46,12.46,0,0,1,76,29.15a9.76,9.76,0,0,1,6-9.8,18,18,0,0,1,8-1.22,29.52,29.52,0,0,1,5.08.6c0.64,0.15.73,0.33,0.67,1-0.09,1-.11,1.91-0.17,2.87A0.89,0.89,0,0,1,95.31,23.28Z" transform="translate(-1.32 -0.88)" fill="#fff"/><path d="M76,38.62c-2.08.1-4.16,0-6.32-.06a0.74,0.74,0,0,1,.5-0.44c0.42-.09.44-0.35,0.35-0.69a18.81,18.81,0,0,0-.85-2.08c-0.5-1.31-1.08-2.59-1.59-3.9A1,1,0,0,0,67,30.75H61.86a0.9,0.9,0,0,0-1,.69c-0.54,1.59-1.14,3.15-1.7,4.73a4,4,0,0,0-.18.67,1.14,1.14,0,0,0,.71,1.4,1.79,1.79,0,0,1,.78.43c-2.11.09-4.15,0-6.26,0a0.83,0.83,0,0,1,.67-0.33,3.19,3.19,0,0,0,2.53-2.15q3.4-8.61,6.81-17.22l0.2-.5a0.38,0.38,0,0,1,.75,0c0.5,1.15,1,2.3,1.44,3.44,2,4.79,4,9.59,6.07,14.36a3,3,0,0,0,2.78,2.08,2.27,2.27,0,0,1,.5.12v0.17ZM64.35,22.15a0.53,0.53,0,0,0-.25.38l-2.38,6.66c-0.19.5-.15,0.58,0.41,0.58h4.55c0.56,0,.61-0.07.42-0.58q-1.19-3.2-2.39-6.4A1.3,1.3,0,0,0,64.35,22.15Z" transform="translate(-1.32 -0.88)" fill="#fff"/><path d="M218.47,26.64a11.81,11.81,0,0,0-.5,4.1,1.16,1.16,0,0,1-.4-0.73,1.68,1.68,0,0,0-1.76-1.56c-1.13-.05-2.27,0-3.4,0-0.5,0-.63.23-0.63,0.82q0,3,0,6,0,0.39,0,.77a1.36,1.36,0,0,0,1.37,1.61,10.61,10.61,0,0,0,3.72,0,2.62,2.62,0,0,0,2.21-1.94,0.77,0.77,0,0,1,.26-0.5,0.67,0.67,0,0,1,.21.59,10.51,10.51,0,0,1-.3,2.22,0.79,0.79,0,0,1-.67.62,5,5,0,0,1-.91.09H208a0.85,0.85,0,0,1-.64-0.13,0.42,0.42,0,0,1,.39-0.24,1.3,1.3,0,0,0,1.21-1.5q0-4,0-8,0-4.24,0-8.51a1.11,1.11,0,0,0-1-1.33,3.24,3.24,0,0,1-1.18-.42,0.54,0.54,0,0,1,.57-0.15h10a3.72,3.72,0,0,0,1.12-.2c0.32-.1.5,0,0.38,0.36a7.93,7.93,0,0,0-.45,2.63,0.39,0.39,0,0,1-.18.37,0.56,0.56,0,0,1-.34-0.5,2.12,2.12,0,0,0-2.19-1.59,30.85,30.85,0,0,0-3.26,0,0.77,0.77,0,0,0-.9,1q0,3,0,6c0,0.82.18,1,1,1h3.88a1.91,1.91,0,0,0,1.5-.64A0.5,0.5,0,0,1,218.47,26.64Z" transform="translate(-1.32 -0.88)" fill="#fff"/><path d="M162.78,35.12a3.93,3.93,0,0,1,0,2.06,2.14,2.14,0,0,1-.07.28c-0.26,1.06-.45,1.22-1.57,1.22h-9.83a0.8,0.8,0,0,1-.55-0.12,0.5,0.5,0,0,1,.43-0.25A1.27,1.27,0,0,0,152.37,37V32.27q0-4.12,0-8.25c0-1.18,0-2.37,0-3.55a1.24,1.24,0,0,0-1.2-1.53,2.87,2.87,0,0,1-1-.36,0.6,0.6,0,0,1,.61-0.16h10a4.33,4.33,0,0,0,1.12-.21c0.32-.08.47,0.08,0.36,0.35a8.63,8.63,0,0,0-.46,2.72,0.36,0.36,0,0,1-.15.3,0.5,0.5,0,0,1-.34-0.47,2.16,2.16,0,0,0-2.23-1.62c-1-.06-2.14,0-3.21,0a0.8,0.8,0,0,0-.94,1v5.9c0,0.9.18,1.07,1.07,1.07,1.28,0,2.56,0,3.83,0a1.89,1.89,0,0,0,1.49-.64,0.42,0.42,0,0,1,.5-0.16,12.22,12.22,0,0,0-.5,4A0.93,0.93,0,0,1,161,30a1.63,1.63,0,0,0-1.71-1.5c-1.15-.06-2.3,0-3.45,0a0.57,0.57,0,0,0-.63.64v7.33a1.15,1.15,0,0,0,1,1.14,11.09,11.09,0,0,0,3.47.17,4.18,4.18,0,0,0,1.32-.43,2.42,2.42,0,0,0,1.41-1.7A0.72,0.72,0,0,1,162.78,35.12Z" transform="translate(-1.32 -0.88)" fill="#fff"/><path d="M195.75,19.5c-1.63.07-3.19-.11-4.75,0.1A3.87,3.87,0,0,0,188,21.33a0.5,0.5,0,0,1-.27.26,0.2,0.2,0,0,1-.08-0.25,24.39,24.39,0,0,1,.61-2.9,0.38,0.38,0,0,1,.43-0.33l0.07,0a6.43,6.43,0,0,0,2.32.2c4.43,0.06,8.86.08,13.28,0.11a3.36,3.36,0,0,0,1.09-.15c0.26-.09.5,0,0.5,0.3a26.18,26.18,0,0,1-.06,3.11,0.21,0.21,0,0,1-.06.08,0.58,0.58,0,0,1-.42-0.42,2.92,2.92,0,0,0-2.67-1.8c-1.5-.06-3,0-4.46,0a1,1,0,0,0-.06.56V35.64c0,1.46.65,2.58,2.2,2.73a3.5,3.5,0,0,1,.45.12,1.47,1.47,0,0,1-.76.19c-2,0-4-.1-6,0a3.42,3.42,0,0,1-.5-0.06,2,2,0,0,1,.69-0.28,1.8,1.8,0,0,0,1.44-1.59c0-.22.05-0.45,0.05-0.67V19.51Z" transform="translate(-1.32 -0.88)" fill="#fff"/><path d="M122.53,35a4.62,4.62,0,0,1-.08,2.61,1.61,1.61,0,0,1-1.21.93,4.74,4.74,0,0,1-.9.1c-2.38,0-4.76-.05-7.13-0.15-1.12,0-2.23.06-3.35,0.11a1,1,0,0,1-.61-0.06,0.32,0.32,0,0,1,.27-0.26,2.28,2.28,0,0,0,1.59-1.92,8.42,8.42,0,0,0,.11-1.24V21.08a4.11,4.11,0,0,0,0-.62,1.6,1.6,0,0,0-1.65-1.6,0.77,0.77,0,0,1-.68-0.35c2.41-.06,4.81,0,7.32-0.06a1.22,1.22,0,0,1-.82.46,2,2,0,0,0-1.65,1.9v0.67q0,6.66,0,13.33a4.55,4.55,0,0,0,.28,1.64,1.72,1.72,0,0,0,1.59,1.19,28.14,28.14,0,0,0,4.07,0A2.87,2.87,0,0,0,122,35.79,1.1,1.1,0,0,1,122.53,35Z" transform="translate(-1.32 -0.88)" fill="#fff"/><path d="M99.11,18.61a0.7,0.7,0,0,1,.69-0.24,30.52,30.52,0,0,0,5.64.07,2.25,2.25,0,0,1,.38,0,1.08,1.08,0,0,1-.7.5,1.37,1.37,0,0,0-1.19,1.6q0,7.74,0,15.51a2,2,0,0,0,1.71,2.19,1.84,1.84,0,0,1,.87.27,2,2,0,0,1-1.37.08,30.54,30.54,0,0,0-5.07.07,1.32,1.32,0,0,1-.84-0.1,1,1,0,0,1,.57-0.24,1.85,1.85,0,0,0,1.54-2V20.55A1.5,1.5,0,0,0,100,18.9,2.24,2.24,0,0,1,99.11,18.61Z" transform="translate(-1.32 -0.88)" fill="#fff"/><path d="M61.71,17.66a0.85,0.85,0,0,1,.63-0.5,13.22,13.22,0,0,0,3.95-2.57,1.3,1.3,0,0,0,.55-1.25,0.34,0.34,0,0,1,.45-0.41,6.67,6.67,0,0,1,1.5.35,0.28,0.28,0,0,1,.13.5,2.54,2.54,0,0,1-.64.57,48.53,48.53,0,0,1-5.85,3.14A1.06,1.06,0,0,1,61.71,17.66Z" transform="translate(-1.32 -0.88)" fill="#fff"/><path d="M45.86,39.95c0.93,1,.39,1.78-0.46,2.54a1.13,1.13,0,0,0-.15,1.27,5.58,5.58,0,0,1,.28,3,4.49,4.49,0,0,1-4.47,3.32,22.68,22.68,0,0,0-5,.4,3,3,0,0,0-2.65,3,0.4,0.4,0,0,1-.5.5H29.31a0.88,0.88,0,0,1-.76-0.37,18.08,18.08,0,0,1-1.9-2.81,3.94,3.94,0,0,1,.5-4.15,3.1,3.1,0,0,1,3.45-1.27,19.23,19.23,0,0,0,4.11.69,3.53,3.53,0,0,0,1.65-.42,1.81,1.81,0,0,0,1-1.62,4.35,4.35,0,0,1,.13-0.82,1.29,1.29,0,0,1,1.32-1,1,1,0,0,0,1.1-1.38,0.58,0.58,0,0,1,.36-0.74l0.12,0a0.9,0.9,0,0,0,.68-1.4,5.68,5.68,0,0,1-.36-1.57,1.1,1.1,0,0,1,.83-1.31h0c1.33-.36,1.91-1.33.84-2.8a13.53,13.53,0,0,1-1.2-2.07,2.85,2.85,0,0,1-.17-2.29,20.33,20.33,0,0,1,.7-2,10.89,10.89,0,0,0,.5-7.7A20.07,20.07,0,0,0,37.8,10.3,17.84,17.84,0,0,0,28.32,5,20.81,20.81,0,0,0,11.55,8.42a14.93,14.93,0,0,0-5.22,7.11A19.34,19.34,0,0,0,6.14,29a34.74,34.74,0,0,0,4.46,8.83,9.35,9.35,0,0,1,1.78,6.1,20.18,20.18,0,0,1-1,4c-0.53,1.8-1.19,3.56-1.87,5.34A1.56,1.56,0,0,1,7.48,54a0.4,0.4,0,0,1-.11-0.54c0.14-.56.3-1.11,0.47-1.66a19.06,19.06,0,0,0,.91-7.06A12,12,0,0,0,7,39.37,39.65,39.65,0,0,1,2.19,28.53a22.22,22.22,0,0,1,.69-14.4A21,21,0,0,1,15.66,2.25C22.23-.16,28.53.73,34.59,4a20.68,20.68,0,0,1,9,9,14.66,14.66,0,0,1,1.36,10.88,1.83,1.83,0,0,0,.44,1.6L49,30.71l0.76,1.07a2.42,2.42,0,0,1,.42,1.43,1,1,0,0,1-.49.92,15,15,0,0,1-2.23,1.24c-1.07.5-1.24,0.92-.57,1.93a1.86,1.86,0,0,1-.51,2.29A1.18,1.18,0,0,0,45.86,39.95Z" transform="translate(-1.32 -0.88)" fill="#fff"/><path d="M16.31,25.12c0.28-.33.58-0.63,0.88-0.94l2.29-2.42,0.19-.21a0.43,0.43,0,0,0,.08-0.61l0,0A5.34,5.34,0,0,0,18.89,20a8.6,8.6,0,0,0-3.19-1.67h0l0.39-1c0.3-.85.59-1.7,0.82-2.57A8.7,8.7,0,0,0,17,13.62a2.39,2.39,0,0,0,0-.55,1.36,1.36,0,0,0-.55-0.91,1.48,1.48,0,0,0-.67-0.33,0.4,0.4,0,0,0-.37.09l-0.15.14a1.37,1.37,0,0,1-1.11.44,4,4,0,0,0-1.88.46,0.16,0.16,0,0,0-.08.09A22.92,22.92,0,0,0,11,16.24a0.11,0.11,0,0,1,0,.06,6.7,6.7,0,0,1,.09-0.76c0-.26.06-0.5,0.11-0.76,0.1-.63.21-1.26,0.36-1.88a2,2,0,0,1,.1-0.4,0.12,0.12,0,0,1,.08-0.09A10.53,10.53,0,0,0,13,11.78a2,2,0,0,1,1.06-.29,0.16,0.16,0,0,0,.1,0,1.76,1.76,0,0,1,1.7-.18,2.12,2.12,0,0,1,.82.64L16.78,12l0.41-.48a0.09,0.09,0,0,1,.17-0.08h0l0.69,0.29a0.23,0.23,0,0,0,.32,0l0-.06,0.05-.07a0.6,0.6,0,0,1,0,.32,0.18,0.18,0,0,1-.2.1,1.22,1.22,0,0,1-.37-0.09H17.81a8.39,8.39,0,0,1-.5.72,3.81,3.81,0,0,1,.3.53A2.67,2.67,0,0,1,17.78,15c-0.19.76-.39,1.52-0.58,2.29A6.86,6.86,0,0,1,17,18L17.26,18a5.85,5.85,0,0,1,1.9.82,5,5,0,0,1,1.59,1.86l0.05,0.11a0.56,0.56,0,0,1-.08.7,3.81,3.81,0,0,1-.5.46l-3.11,2.56-0.76.61h0Z" transform="translate(-1.32 -0.88)" fill="#fff"/><path d="M8.07,26.86a5.55,5.55,0,0,1,.76-1.36A10.84,10.84,0,0,1,10.24,24a9.67,9.67,0,0,1,.85-0.62,3.88,3.88,0,0,0,.76-0.66,0.88,0.88,0,0,0,.24-0.76c0.27-.17.55-0.34,0.82-0.53A5.69,5.69,0,0,0,14,20.47a1.78,1.78,0,0,0,.34-0.55V19.86c0.46,0.2.91,0.39,1.36,0.6a4.84,4.84,0,0,1-.76.85,8,8,0,0,1-1.88,1.14,0.11,0.11,0,0,0-.08.05,1.1,1.1,0,0,1-.47.52,2.55,2.55,0,0,1-.49.26,5.56,5.56,0,0,0-1.38.87,15.18,15.18,0,0,0-2.62,2.68h0Z" transform="translate(-1.32 -0.88)" fill="#fff"/><path d="M20.93,13c-0.24.42-.49,0.82-0.76,1.23-0.44.69-.89,1.38-1.37,2a1.22,1.22,0,0,1-.31.33,0.21,0.21,0,0,1-.29,0l0,0-0.42-.4a0.09,0.09,0,0,1,0-.11,9,9,0,0,0,.37-1.78h0c0.18,0.31.33,0.64,0.49,1,0.76-.76,1.59-1.49,2.29-2.29h0Z" transform="translate(-1.32 -0.88)" fill="#fff"/><path d="M16.08,10a1.52,1.52,0,0,1,.31-1.15A1.29,1.29,0,0,1,17.3,8.4a2.07,2.07,0,0,1,1,.16A1,1,0,0,1,18.9,9.7a2.14,2.14,0,0,1-.09.43,0.37,0.37,0,0,0,0,.25c0,0.1.08,0.2,0.12,0.3a0.11,0.11,0,0,1-.11.18H18.64l0.11,0a0.11,0.11,0,0,0,.05-0.2l-0.08-.11a0.62,0.62,0,0,1-.14-0.56,1.43,1.43,0,0,0,0-.59,0.43,0.43,0,0,0-.12-0.23,1.52,1.52,0,0,0-1.28-.43,1,1,0,0,0-.87.53,1.88,1.88,0,0,0-.18.46C16.13,9.78,16.11,9.89,16.08,10Z" transform="translate(-1.32 -0.88)" fill="#fff"/><path d="M35.3,17.75a3.74,3.74,0,0,1-1.17,2.84A4.19,4.19,0,0,0,33,23.33a3.17,3.17,0,0,1-2.58,2.87,0.85,0.85,0,0,1-.76,0,0.46,0.46,0,0,1-.24-0.37,0.37,0.37,0,0,1,.28-0.29c0.38-.18.83-0.08,1.22-0.3a2.35,2.35,0,0,0,1.33-2.16,4.08,4.08,0,0,1,1.05-2.61,4.66,4.66,0,0,0,1.19-2,4.18,4.18,0,0,0-1.57-4,3.9,3.9,0,0,0-2.21-.84A4.11,4.11,0,0,0,26.28,17a2.19,2.19,0,0,0-.11.76,0.4,0.4,0,0,1-.3.49H25.79a0.46,0.46,0,0,1-.4-0.51,4.71,4.71,0,0,1,.55-2.07,4.92,4.92,0,0,1,9.06.54A3.25,3.25,0,0,1,35.3,17.75Z" transform="translate(-1.32 -0.88)" fill="#fff"/><path d="M32.93,18.23a0.89,0.89,0,0,1-.49-1,2.12,2.12,0,0,0-2.29-1.6,2.05,2.05,0,0,0-2,1.92,0.5,0.5,0,0,1-.39.59H27.75c-0.36,0-.36-0.34-0.32-0.65A2.93,2.93,0,0,1,29.49,15a2.7,2.7,0,0,1,2.87.69,2.87,2.87,0,0,1,.95,1.94,0.44,0.44,0,0,1-.28.56Z" transform="translate(-1.32 -0.88)" fill="#fff"/><path d="M34.9,10.68a0.48,0.48,0,0,1,.66-0.11,7.91,7.91,0,0,1,1.88,1.8,10.08,10.08,0,0,1,1.45,2.71,0.39,0.39,0,0,1-.14.53l0,0a0.37,0.37,0,0,1-.48-0.18l0-.05C38,15,37.9,14.63,37.73,14.23a8.33,8.33,0,0,0-2.5-3C34.9,10.94,34.76,10.84,34.9,10.68Z" transform="translate(-1.32 -0.88)" fill="#fff"/><path d="M37,16.07a0.43,0.43,0,0,1-.76-0.12v-0.1a5.91,5.91,0,0,0-2.19-3c-0.21-.15-0.42-0.36-0.21-0.62s0.42-.15.66,0A7.3,7.3,0,0,1,37,15.73,0.28,0.28,0,0,1,37,16.07Z" transform="translate(-1.32 -0.88)" fill="#fff"/><path d="M27.82,23.28h0a0.33,0.33,0,0,1-.46,0h0L26.06,22a0.33,0.33,0,0,1,0-.46h0a0.33,0.33,0,0,1,.46,0l1.28,1.31a0.33,0.33,0,0,1,0,.46h0Z" transform="translate(-1.32 -0.88)" fill="#fff"/><circle cx="29.32" cy="17.86" r="0.36" fill="#fff"/><circle cx="27.17" cy="19.97" r="0.36" fill="#fff"/><circle cx="24.11" cy="23.04" r="0.36" fill="#fff"/><circle cx="22.1" cy="25.03" r="0.36" fill="#fff"/><path d="M24.62,33.78a0.25,0.25,0,0,1-.11.42c-0.84.23-.88,0.66-1.05,1.66-0.2,1.16,0,2.33-.15,3.51a1.92,1.92,0,0,1-1.78,1.92A0.24,0.24,0,0,1,21.26,41v-4.9a6.1,6.1,0,0,1,.09-0.87,0.56,0.56,0,0,1,.45-0.49l0.51-.1a0.24,0.24,0,0,0,.21-0.27v0h0a0.24,0.24,0,0,0-.21-0.21H21.94c-0.93,0-1.87,0-2.8-.06-0.4,0-.53.12-0.43,0.51h0.06c0.91,0.06,1.09.24,1.09,1.14v5.07a0.91,0.91,0,0,0,0,.12,0.25,0.25,0,0,1-.24.27h0a1.81,1.81,0,0,1-1.69-1.81c-0.1-.76,0-1.59-0.07-2.38a10.5,10.5,0,0,0-.21-1.78,1.17,1.17,0,0,0-1-1,0.25,0.25,0,0,1-.1-0.43A6.28,6.28,0,0,1,20,32.34,6.72,6.72,0,0,1,24.62,33.78Z" transform="translate(-1.32 -0.88)" fill="#fff"/><path d="M16.41,37.12a8.52,8.52,0,0,0,.23,2.48,2.61,2.61,0,0,0,1.88,1.94c0.34,0.1.69,0.19,1,.26a0.3,0.3,0,0,1,.3.35v1.8a1,1,0,0,1-1.4.91,6.31,6.31,0,0,1-4.3-5.24,6.16,6.16,0,0,1,1.29-4.79A0.53,0.53,0,0,1,16,34.68a0.39,0.39,0,0,1,.3.4,5,5,0,0,1,.09,1.12C16.4,36.51,16.41,36.81,16.41,37.12Z" transform="translate(-1.32 -0.88)" fill="#fff"/><path d="M27,38.83a6.43,6.43,0,0,1-3.21,5.45,3,3,0,0,1-1.61.6,0.69,0.69,0,0,1-.76-0.54,2.86,2.86,0,0,1-.12-1.23,2.29,2.29,0,0,0,0-.88,0.34,0.34,0,0,1,.34-0.48,5.5,5.5,0,0,0,1.52-.45A2.17,2.17,0,0,0,24.39,40a5.77,5.77,0,0,0,.42-2V35.48a1.24,1.24,0,0,1,0-.35,0.46,0.46,0,0,1,.86-0.21,6,6,0,0,1,1.11,2.35A5.52,5.52,0,0,1,27,38.83Z" transform="translate(-1.32 -0.88)" fill="#fff"/><path d="M39.4,33.23a1,1,0,0,0-1.4.38,12.2,12.2,0,0,1-1.36,1.52,0.68,0.68,0,0,1-.76.2,0.76,0.76,0,0,1-.24-0.84c0.14-1.22.95-2.18,1.33-3.31A8.64,8.64,0,0,0,37.61,29a0.62,0.62,0,0,0-.37-0.63,0.47,0.47,0,0,0-.59.25,2.07,2.07,0,0,0-.27.43A34.86,34.86,0,0,1,35,32.29a0.43,0.43,0,0,1-.51.32h0a0.41,0.41,0,0,1-.32-0.48l0-.06c0.21-1.19.09-2.41,0.33-3.59a1.67,1.67,0,0,0-.18-1.31,0.48,0.48,0,0,0-.9.06,2.74,2.74,0,0,0-.22,1.05c-0.08,1.17-.14,2.34-0.24,3.51a0.56,0.56,0,0,1-.41.63A0.48,0.48,0,0,1,32,31.89a2.48,2.48,0,0,0-.14-0.34c-0.18-1-.48-2-0.76-3a2.94,2.94,0,0,0-.36-0.76,0.43,0.43,0,0,0-.56-0.07,0.52,0.52,0,0,0-.19.62c0.21,1.36.52,2.71,0.82,4.06,0,0.18.16,0.42-.14,0.51A0.48,0.48,0,0,1,30,32.73l0,0a7.72,7.72,0,0,0-.56-0.89,6.19,6.19,0,0,0-1.17-1.63c-0.19-.15-0.35-0.4-0.59-0.2a0.52,0.52,0,0,0,0,.72c0.35,0.6.66,1.24,1,1.82a5.17,5.17,0,0,1,.76,2.07,12.1,12.1,0,0,0,.29,2.08h0A5.34,5.34,0,0,0,30.45,39a2.1,2.1,0,0,0,.81.76,0.54,0.54,0,0,0,.81-0.47V36.91a0.6,0.6,0,0,0-.6-0.6H30.81a0.6,0.6,0,0,1-.6-0.6h0a0.6,0.6,0,0,1,.6-0.58h4a0.6,0.6,0,0,1,.6.6h0a0.6,0.6,0,0,1-.6.6H34.14a0.6,0.6,0,0,0-.6.6h0v2.52a0.5,0.5,0,0,0,.72.44,6,6,0,0,0,2.23-2.13,15.11,15.11,0,0,1,1.42-1.88,8.24,8.24,0,0,0,1.65-2,0.45,0.45,0,0,0-.14-0.62h0Z" transform="translate(-1.32 -0.88)" fill="#fff"/><path d="M32.83,39.9a2.23,2.23,0,1,0,2.23,2.23,2.23,2.23,0,0,0-2.23-2.23h0Zm0,3.22a1,1,0,1,1,1-1h0a1,1,0,0,1-1,1h0Z" transform="translate(-1.32 -0.88)" fill="#fff"/><path d="M212.33,43.45h-0.39l0.21-3.57h0.2a0.27,0.27,0,0,1,.35.26c0.19,0.83.41,1.66,0.62,2.5l0.57-2.36c0.1-.43.1-0.43,0.58-0.38l0.21,3.55a0.74,0.74,0,0,1-.4,0l-0.14-2.6h0l-0.32,1.22c-0.1.41-.21,0.81-0.31,1.21a0.18,0.18,0,0,1-.17.18h0a0.19,0.19,0,0,1-.2-0.18s0,0,0,0c-0.2-.79-0.41-1.58-0.65-2.38Z" transform="translate(-1.32 -0.88)" fill="#fff"/><path d="M209.4,41.67a2.84,2.84,0,0,1,.24-1.27,0.89,0.89,0,0,1,.83-0.58,0.84,0.84,0,0,1,.77.58,2.08,2.08,0,0,1,.15.49,4.08,4.08,0,0,1-.05,1.75,1.33,1.33,0,0,1-.31.6,0.83,0.83,0,0,1-1.38-.26A3,3,0,0,1,209.4,41.67Zm0.45,0.14a2.63,2.63,0,0,0,.18,1,0.44,0.44,0,0,0,.41.33,0.41,0.41,0,0,0,.4-0.34,3.57,3.57,0,0,0,0-2.17,0.45,0.45,0,0,0-.43-0.38,0.47,0.47,0,0,0-.42.39A3.34,3.34,0,0,0,209.85,41.81Z" transform="translate(-1.32 -0.88)" fill="#fff"/><path d="M201.8,39.88c0.47,0,.47,0,0.54.36,0.24,1.08.47,2.12,0.71,3.18-0.37.1-.43,0.07-0.49-0.27a0.3,0.3,0,0,0,0-.19c-0.14-.57-0.14-0.54-0.71-0.54a0.19,0.19,0,0,0-.23.15v0c0,0.18-.08.37-0.11,0.54-0.08.35-.08,0.36-0.49,0.29ZM202,40.47h0L201.7,42a2,2,0,0,0,.64,0Z" transform="translate(-1.32 -0.88)" fill="#fff"/><path d="M217.12,43.43c-0.38.08-.4,0.07-0.48-0.27a2.25,2.25,0,0,1-.09-0.43c0-.29-0.16-0.34-0.42-0.32-0.43,0-.43,0-0.54.42a1.71,1.71,0,0,1-.06.31c-0.08.36-.09,0.37-0.49,0.29L215.58,41c0.07-.32.16-0.63,0.22-1s0.18-.15.3-0.15a0.19,0.19,0,0,1,.24.11v0c0.24,1.08.49,2.22,0.74,3.32A0.43,0.43,0,0,1,217.12,43.43ZM216.42,42l-0.32-1.65L215.77,42h0.65Z" transform="translate(-1.32 -0.88)" fill="#fff"/><path d="M208.6,40.24h-1a0.63,0.63,0,0,1,0-.37h1.56a0.58,0.58,0,0,1,0,.45l-1,2.45a0.69,0.69,0,0,0-.09.31h1.12a0.46,0.46,0,0,1,0,.36h-1.66a0.5,0.5,0,0,1,0-.4l1-2.49A0.54,0.54,0,0,0,208.6,40.24Z" transform="translate(-1.32 -0.88)" fill="#fff"/><path d="M204.63,43l0.3,0.09a0.63,0.63,0,0,0,.73-0.22,0.74,0.74,0,0,0-.06-0.79,1.81,1.81,0,0,0-.38-0.34,1.78,1.78,0,0,1-.46-0.47,1,1,0,0,1,.08-1.12,1,1,0,0,1,1.08-.25c0.27,0.11.06,0.26,0.05,0.4a0.42,0.42,0,0,1-.27-0.05,0.51,0.51,0,0,0-.59.19,0.54,0.54,0,0,0,0,.68,3.61,3.61,0,0,0,.54.44,1.14,1.14,0,0,1,.48.9,1,1,0,0,1-1.48,1C204.42,43.3,204.62,43.15,204.63,43Z" transform="translate(-1.32 -0.88)" fill="#fff"/><path d="M199.3,40.31l-0.22-.06a0.54,0.54,0,0,0-.63.19,0.58,0.58,0,0,0,.07.7,3.71,3.71,0,0,0,.4.32,1.21,1.21,0,0,1,.54,1.28,1,1,0,0,1-1.26.74L198,43.4c-0.22-.1,0-0.25,0-0.38a0.68,0.68,0,0,1,.32.06,0.62,0.62,0,0,0,.71-0.23,0.69,0.69,0,0,0-.09-0.8,2.57,2.57,0,0,0-.37-0.32,1.21,1.21,0,0,1-.6-1,0.94,0.94,0,0,1,1.33-.82C199.52,40,199.33,40.16,199.3,40.31Z" transform="translate(-1.32 -0.88)" fill="#fff"/><path d="M219.06,43.07c0.12,0.35.1,0.4-.25,0.42a1.08,1.08,0,0,1-1.23-.78,3,3,0,0,1,0-2.07,1.13,1.13,0,0,1,1.4-.77l0.12,0c0,0.32,0,.32-0.34.29a0.71,0.71,0,0,0-.73.48,2.59,2.59,0,0,0,0,1.92A0.8,0.8,0,0,0,219.06,43.07Z" transform="translate(-1.32 -0.88)" fill="#fff"/><path d="M189,45.44V43.82a1.66,1.66,0,0,1,.51,0v4.49a1.08,1.08,0,0,1-.4,0A2,2,0,0,0,189,48a0.21,0.21,0,0,0-.11.1,0.71,0.71,0,0,1-1.12-.05,2.38,2.38,0,0,1-.32-1.57,2.07,2.07,0,0,1,.23-0.89,0.84,0.84,0,0,1,.48-0.44A0.68,0.68,0,0,1,189,45.44Zm0,1.29V46.25a0.89,0.89,0,0,0-.14-0.48,0.38,0.38,0,0,0-.69,0A1.25,1.25,0,0,0,188,46a2.71,2.71,0,0,0-.08,1,1.59,1.59,0,0,0,.17.66,0.37,0.37,0,0,0,.7,0A0.89,0.89,0,0,0,189,47.2c0-.13,0-0.29,0-0.45h0Z" transform="translate(-1.32 -0.88)" fill="#fff"/><path d="M209.71,48.3h-0.42a1,1,0,0,1-.06-0.32,2.17,2.17,0,0,1-.2.22,0.73,0.73,0,0,1-1.12-.23,1.76,1.76,0,0,1-.24-0.75,3,3,0,0,1,.16-1.52,0.84,0.84,0,0,1,.87-0.6,0.76,0.76,0,0,1,.48.29V43.77h0.51C209.71,45.29,209.65,46.78,209.71,48.3Zm-0.54-1.55V46.17a0.7,0.7,0,0,0-.21-0.5,0.35,0.35,0,0,0-.49-0.05l-0.05.05a0.85,0.85,0,0,0-.19.4,3.3,3.3,0,0,0,0,1.19,1.14,1.14,0,0,0,.16.48,0.36,0.36,0,0,0,.64,0,0.83,0.83,0,0,0,.16-0.48,3,3,0,0,1,0-.5h0Z" transform="translate(-1.32 -0.88)" fill="#fff"/><path d="M167.31,45.17a1.54,1.54,0,0,1,.41,0,2.17,2.17,0,0,1,.06.33,0.83,0.83,0,0,1,.66-0.39,0.75,0.75,0,0,1,.74.54,2.91,2.91,0,0,1,0,2.17,0.81,0.81,0,0,1-.94.54,0.86,0.86,0,0,1-.4-0.28v1.08c0,0.47,0,.47-0.54.39V45.17h0Zm0.54,1.55a2.44,2.44,0,0,0,.06.88,0.42,0.42,0,0,0,.82,0,2.64,2.64,0,0,0,0-1.67,0.44,0.44,0,0,0-.42-0.36,0.47,0.47,0,0,0-.42.37,0.75,0.75,0,0,0,0,.24,4.45,4.45,0,0,0,0,.54h0Z" transform="translate(-1.32 -0.88)" fill="#fff"/><path d="M198.16,45.17a1.33,1.33,0,0,1,.44,0,1.46,1.46,0,0,1,.06.33,0.84,0.84,0,0,1,.61-0.39,0.73,0.73,0,0,1,.66.32,1.72,1.72,0,0,1,.31.85,3,3,0,0,1-.12,1.4,1,1,0,0,1-.71.68,0.71,0.71,0,0,1-.68-0.29v1.47a1.46,1.46,0,0,1-.49,0C198.17,48.11,198.24,46.65,198.16,45.17Zm0.54,1.52v0.48a1.21,1.21,0,0,0,.1.47,0.42,0.42,0,0,0,.4.3,0.43,0.43,0,0,0,.39-0.31,2.85,2.85,0,0,0,.1-1.42,1,1,0,0,0-.16-0.45,0.37,0.37,0,0,0-.66,0,0.8,0.8,0,0,0-.14.3,3.7,3.7,0,0,0,0,.65h0Z" transform="translate(-1.32 -0.88)" fill="#fff"/><path d="M196.64,43.92l1,4.33a1,1,0,0,1-.41,0c-0.12,0-.11-0.1-0.14-0.17-0.08-.32-0.15-0.64-0.21-1a0.17,0.17,0,0,0-.17-0.17h-0.63a0.19,0.19,0,0,0-.23.15v0c-0.05.3-.14,0.59-0.18,0.89a0.23,0.23,0,0,1-.22.25h-0.34l0.59-2.59c0.12-.54.26-1.08,0.37-1.62a0.19,0.19,0,0,1,.19-0.2h0.06Zm-0.3.62-0.42,2h0.8Z" transform="translate(-1.32 -0.88)" fill="#fff"/><path d="M150.44,48.3v-2a1.46,1.46,0,0,0,0-.48,0.38,0.38,0,0,0-.28-0.29,0.4,0.4,0,0,0-.41.16,0.82,0.82,0,0,0-.16.54v2H149V45.17h0.41a1.21,1.21,0,0,1,0,.32,0.91,0.91,0,0,1,.74-0.38,0.68,0.68,0,0,1,.65.44,1,1,0,0,1,.09.36v2.38A1.58,1.58,0,0,1,150.44,48.3Z" transform="translate(-1.32 -0.88)" fill="#fff"/><path d="M207,48.3H206.5a0.38,0.38,0,0,1,0-.24V46.27a1.26,1.26,0,0,0-.06-0.43,0.35,0.35,0,0,0-.31-0.27,0.4,0.4,0,0,0-.4.19,1,1,0,0,0-.14.54V48a0.54,0.54,0,0,1,0,.25,1.66,1.66,0,0,1-.49,0c0-1,0-2.08,0-3.13h0.43a1.08,1.08,0,0,1,.06.3,0.89,0.89,0,0,1,.73-0.36,0.67,0.67,0,0,1,.63.41,1,1,0,0,1,.11.42C207,46.72,207,47.5,207,48.3Z" transform="translate(-1.32 -0.88)" fill="#fff"/><path d="M174.42,48.29c-0.42.05-.43,0-0.47-0.24a1.56,1.56,0,0,1-.5.3,0.69,0.69,0,0,1-.86-0.47,1.62,1.62,0,0,1-.09-0.54v-2.2H173a0.29,0.29,0,0,1,0,.23v1.88a1.29,1.29,0,0,0,.05.35,0.36,0.36,0,0,0,.31.3,0.41,0.41,0,0,0,.41-0.22,1.08,1.08,0,0,0,.11-0.58V45.16a1.16,1.16,0,0,1,.46,0C174.39,45.27,174.44,48.11,174.42,48.29Z" transform="translate(-1.32 -0.88)" fill="#fff"/><path d="M185.41,45.17h0.51c-0.19.77-.38,1.53-0.58,2.28a6.5,6.5,0,0,1-.54,1.48,1.73,1.73,0,0,1-.75.77l-0.21-.42a1.74,1.74,0,0,0,.71-0.87,0.67,0.67,0,0,0,0-.43q-0.36-1.29-.7-2.58a0.44,0.44,0,0,1,0-.22h0c0.46,0,.46,0,0.54.4,0.15,0.64.29,1.28,0.47,1.93Z" transform="translate(-1.32 -0.88)" fill="#fff"/><path d="M157.07,46.74a2,2,0,0,1-.3,1.22,0.88,0.88,0,0,1-1.5,0A2.4,2.4,0,0,1,155,46.4a1.74,1.74,0,0,1,.29-0.87,0.88,0.88,0,0,1,1.51,0A2.17,2.17,0,0,1,157.07,46.74Zm-0.54,0a2.08,2.08,0,0,0-.13-0.91,0.43,0.43,0,0,0-.38-0.31,0.41,0.41,0,0,0-.38.32,2.79,2.79,0,0,0,0,1.78A0.42,0.42,0,0,0,156,48a0.43,0.43,0,0,0,.39-0.36,2.17,2.17,0,0,0,.11-0.84h0Z" transform="translate(-1.32 -0.88)" fill="#fff"/><path d="M180.21,46.75a2.11,2.11,0,0,1,.22-1.08,0.91,0.91,0,0,1,.86-0.54,0.85,0.85,0,0,1,.81.58,2.66,2.66,0,0,1,0,2.07,0.91,0.91,0,0,1-.87.61,0.9,0.9,0,0,1-.84-0.61A2.19,2.19,0,0,1,180.21,46.75Zm0.54,0a2.08,2.08,0,0,0,.11.82,0.45,0.45,0,0,0,.4.36,0.41,0.41,0,0,0,.4-0.35,2.83,2.83,0,0,0,0-1.73,0.42,0.42,0,0,0-.4-0.35,0.44,0.44,0,0,0-.4.36,2.34,2.34,0,0,0-.14.91Z" transform="translate(-1.32 -0.88)" fill="#fff"/><path d="M215.63,48.3a1.39,1.39,0,0,1-.4,0,1.59,1.59,0,0,1-.08-0.22H215.1a0.71,0.71,0,0,1-.86.21,0.82,0.82,0,0,1-.47-0.81,1.13,1.13,0,0,1,1.08-1.18h0.23a0.68,0.68,0,0,0-.16-0.67,0.72,0.72,0,0,0-.81,0c-0.19-.31-0.17-0.37.16-0.48a1.41,1.41,0,0,1,.7,0,0.85,0.85,0,0,1,.64.89v1.62C215.63,47.85,215.63,48.07,215.63,48.3Zm-0.5-1.58a0.7,0.7,0,0,0-.8,1,0.36,0.36,0,0,0,.6.18,0.58,0.58,0,0,0,.17-0.3A3.18,3.18,0,0,0,215.13,46.72Z" transform="translate(-1.32 -0.88)" fill="#fff"/><path d="M166,46.3c0.12-.69-0.23-0.92-1-0.66-0.2-.28-0.18-0.35.14-0.47a1.41,1.41,0,0,1,.68-0.06,0.86,0.86,0,0,1,.69.93V48.3a1.32,1.32,0,0,1-.43,0l0-.22-0.07,0a0.7,0.7,0,0,1-.83.24,0.79,0.79,0,0,1-.49-0.73,1.14,1.14,0,0,1,1-1.27h0.15ZM166,47.09V46.81a0.11,0.11,0,0,0-.09-0.12h0a0.71,0.71,0,0,0-.7.92,0.37,0.37,0,0,0,.33.35,0.41,0.41,0,0,0,.43-0.3,1.34,1.34,0,0,0,.08-0.57h0Z" transform="translate(-1.32 -0.88)" fill="#fff"/><path d="M146,47.83a0.85,0.85,0,0,1,.1.32c0,0.1-.06.12-0.12,0.15a1.36,1.36,0,0,1-1.67-.64,3.33,3.33,0,0,1-.3-1.89,2.41,2.41,0,0,1,.47-1.36,1.37,1.37,0,0,1,1.38-.51,0.34,0.34,0,0,1,.24.11l-0.1.38-0.48-.06a0.9,0.9,0,0,0-.7.48,1.81,1.81,0,0,0-.24.71,4,4,0,0,0,.06,1.54A1,1,0,0,0,146,47.83Z" transform="translate(-1.32 -0.88)" fill="#fff"/><path d="M219.39,47.86c0.14,0.37.14,0.37-.22,0.46a1.08,1.08,0,0,1-1.47-.89,2.53,2.53,0,0,1,.17-1.79,0.89,0.89,0,0,1,.71-0.54,0.82,0.82,0,0,1,.93.68,2.35,2.35,0,0,1,.08,1h-1.44a1.21,1.21,0,0,0,.28,1A0.91,0.91,0,0,0,219.39,47.86Zm-0.29-1.47a1.13,1.13,0,0,0-.15-0.7,0.32,0.32,0,0,0-.54-0.06,1.12,1.12,0,0,0-.26.77h1Z" transform="translate(-1.32 -0.88)" fill="#fff"/><path d="M161,46.82c0.06,1,.25,1.19,1.25,1l0,0.07a1.41,1.41,0,0,0,0,.25,1.15,1.15,0,0,1-1.74-.66,2.64,2.64,0,0,1,.1-1.82,0.94,0.94,0,0,1,.69-0.6,0.79,0.79,0,0,1,.93.51,2.37,2.37,0,0,1,.16,1c0,0.14-.09.15-0.19,0.14h-1.08A0.29,0.29,0,0,0,161,46.82Zm0.95-.44a1,1,0,0,0-.09-0.6,0.4,0.4,0,0,0-.34-0.28,0.36,0.36,0,0,0-.35.23,1,1,0,0,0-.15.64H162Z" transform="translate(-1.32 -0.88)" fill="#fff"/><path d="M148.13,47.86a0.8,0.8,0,0,1,.1.32,1.13,1.13,0,0,1-1.58-.27l0-.07a2.39,2.39,0,0,1,0-2.25,0.84,0.84,0,0,1,.9-0.47,0.82,0.82,0,0,1,.68.62,2.47,2.47,0,0,1,.12.87,0.16,0.16,0,0,1-.11.19h-1.31C146.73,47.6,147.24,48.07,148.13,47.86Zm-0.29-1.47a1,1,0,0,0-.14-0.69,0.33,0.33,0,0,0-.58,0,1.05,1.05,0,0,0-.21.71h0.93v0Z" transform="translate(-1.32 -0.88)" fill="#fff"/><path d="M170.41,46.83a1.19,1.19,0,0,0,.28.94,0.89,0.89,0,0,0,1,.08c0.15,0.35.15,0.37-.19,0.46a1.11,1.11,0,0,1-1.48-.89,2.54,2.54,0,0,1,.16-1.77,0.89,0.89,0,0,1,.71-0.54,0.81,0.81,0,0,1,.91.63,2.52,2.52,0,0,1,.11.91c0,0.13-.08.14-0.17,0.14h-1.24Zm0-.44h1a1.42,1.42,0,0,0-.14-0.65,0.34,0.34,0,0,0-.62,0,1.14,1.14,0,0,0-.2.69h0Z" transform="translate(-1.32 -0.88)" fill="#fff"/><path d="M191.93,47.84a0.94,0.94,0,0,0,0,.15c0.08,0.18,0,.27-0.17.32a1.14,1.14,0,0,1-1.58-.93,2.71,2.71,0,0,1,.09-1.52,1.25,1.25,0,0,1,.32-0.5,0.81,0.81,0,0,1,1.32.21,2,2,0,0,1,.15,1.23h-1.4C190.62,47.53,190.95,48.21,191.93,47.84Zm-0.29-1.45a1.21,1.21,0,0,0-.16-0.68,0.34,0.34,0,0,0-.61,0,1.25,1.25,0,0,0-.2.7h1v0Z" transform="translate(-1.32 -0.88)" fill="#fff"/><path d="M204.16,47.86a0.7,0.7,0,0,1,.1.34,1.15,1.15,0,0,1-1.73-.62,2.46,2.46,0,0,1,.18-2,0.85,0.85,0,0,1,.9-0.43,0.8,0.8,0,0,1,.64.6,2,2,0,0,1,.1,1.08h-1.44a1.32,1.32,0,0,0,.29,1A0.88,0.88,0,0,0,204.16,47.86Zm-0.29-1.47a1,1,0,0,0-.16-0.72,0.32,0.32,0,0,0-.54,0,1,1,0,0,0-.22.75h0.92Z" transform="translate(-1.32 -0.88)" fill="#fff"/><path d="M159.72,48.3h-0.54V44.38h-0.77a1.12,1.12,0,0,1,0-.44h2.09a1.32,1.32,0,0,1,0,.43h-0.79V48.3h0Z" transform="translate(-1.32 -0.88)" fill="#fff"/><path d="M211.57,48.3a0.64,0.64,0,0,1,.06-0.47c0.36-.69.71-1.38,1.08-2.06a0.16,0.16,0,0,0,0-.17h-1a1.37,1.37,0,0,1,0-.43h1.66a0.74,0.74,0,0,1-.06.5c-0.37.69-.72,1.39-1.08,2.08a0.14,0.14,0,0,0,0,.15h1.15a1.08,1.08,0,0,1,0,.4h-1.79Z" transform="translate(-1.32 -0.88)" fill="#fff"/><path d="M176.37,47.93c0.06,0.41,0,.43-0.33.43a0.64,0.64,0,0,1-.7-0.74v-2H175a1,1,0,0,1,0-.35l0.38-.06a0.48,0.48,0,0,1,.51-0.67v0.67h0.57a1,1,0,0,1,0,.38c-0.18.06-.37,0-0.54,0a0.47,0.47,0,0,0,0,.28v1.53C175.85,47.89,175.88,47.89,176.37,47.93Z" transform="translate(-1.32 -0.88)" fill="#fff"/><path d="M152.93,45.16v0.4h-0.57a1.17,1.17,0,0,0,0,.42,14.07,14.07,0,0,0,0,1.59,0.3,0.3,0,0,0,.37.35c0.16,0,.15.09,0.16,0.2a0.18,0.18,0,0,1-.15.24,0.69,0.69,0,0,1-.9-0.76v-2l-0.38-.06a1.32,1.32,0,0,1,0-.34l0.06,0c0.32,0,.34,0,0.32-0.35a0.23,0.23,0,0,1,.17-0.27h0a0.81,0.81,0,0,1,.3-0.08,2.42,2.42,0,0,1,0,.54,0.14,0.14,0,0,0,.11.17h0.06A2.82,2.82,0,0,1,152.93,45.16Z" transform="translate(-1.32 -0.88)" fill="#fff"/><path d="M216.49,45.17H217a0.36,0.36,0,0,1,0,.24v2.84a2.17,2.17,0,0,1-.11.74,1,1,0,0,1-.79.63,0.11,0.11,0,0,1-.15-0.11l0-.29a0.8,0.8,0,0,0,.54-1V45.43A0.77,0.77,0,0,0,216.49,45.17Z" transform="translate(-1.32 -0.88)" fill="#fff"/><path d="M192.78,48.31v-4.5a2.1,2.1,0,0,1,.5,0V48.3A2.07,2.07,0,0,1,192.78,48.31Z" transform="translate(-1.32 -0.88)" fill="#fff"/><path d="M179.77,47.87c0.1,0.41.07,0.45-.33,0.48a1,1,0,0,1-1.16-.78,2.45,2.45,0,0,1,0-1.67,1.15,1.15,0,0,1,1.16-.79c0.41,0,.46.11,0.27,0.49a0.68,0.68,0,0,0-.79.16,1,1,0,0,0-.17.31,2.06,2.06,0,0,0-.06,1.12A0.75,0.75,0,0,0,179.77,47.87Z" transform="translate(-1.32 -0.88)" fill="#fff"/><path d="M153.9,45.16a1.55,1.55,0,0,0,.08.38,0.74,0.74,0,0,1,.72-0.43,1.56,1.56,0,0,1,0,.48,0.83,0.83,0,0,0-.71,1V48.3a2,2,0,0,1-.5,0V45.17A1.28,1.28,0,0,1,153.9,45.16Z" transform="translate(-1.32 -0.88)" fill="#fff"/><path d="M163.66,48.3h-0.51c0-1,0-2.08,0-3.13a1.4,1.4,0,0,1,.47,0V45.6a0.77,0.77,0,0,1,.76-0.48,1.86,1.86,0,0,1,0,.5,0.73,0.73,0,0,0-.71.81v1.62A0.48,0.48,0,0,1,163.66,48.3Z" transform="translate(-1.32 -0.88)" fill="#fff"/><path d="M202.14,45.63a0.68,0.68,0,0,0-.7.66s0,0,0,.06v1.71a0.4,0.4,0,0,1,0,.24,1.88,1.88,0,0,1-.48,0c0-1,0-2.07,0-3.11a1.08,1.08,0,0,1,.44,0,1.62,1.62,0,0,1,.06.42,0.75,0.75,0,0,1,.77-0.45v0.5Z" transform="translate(-1.32 -0.88)" fill="#fff"/><path d="M211,48.3a2,2,0,0,1-.49,0V45.17H211V48.3Z" transform="translate(-1.32 -0.88)" fill="#fff"/><path d="M177.51,48.3a1.84,1.84,0,0,1-.47,0c0-.17,0-2.85,0-3.13a1.68,1.68,0,0,1,.48,0v3.13h0Z" transform="translate(-1.32 -0.88)" fill="#fff"/></svg>